<svg width="489" height="324" viewBox="0 0 489 324" fill="none" xmlns="http://www.w3.org/2000/svg">
<path d="M411.44 157.024L411.366 157.051L382.316 195.548L324.288 214.774L324.215 214.802L295.164 253.299L237.136 272.525L237.063 272.552L208.012 311.05L168.993 323.973H170.162L208.316 311.331L208.389 311.303L237.449 272.806L295.477 253.58L295.551 253.553L324.61 215.055L382.638 195.829L382.712 195.802L411.762 157.304L469.79 138.078L469.863 138.051L488.982 112.721V111.942L469.477 137.789L411.449 157.015L411.44 157.024ZM404.177 152.215L404.104 152.242L375.053 190.74L317.026 209.966L316.952 209.993L287.901 248.49L229.874 267.716L229.8 267.744L200.749 306.241L147.205 323.982H148.374L201.053 306.531L201.127 306.504L230.177 268.006L288.205 248.78L288.279 248.753L317.329 210.255L375.357 191.029L375.431 191.002L404.481 152.505L462.509 133.279L462.582 133.251L488.964 98.2949V97.5161L462.196 132.989L404.168 152.215H404.177ZM433.154 55.9938L404.104 94.4913L346.076 113.717L346.003 113.745L316.952 152.242L258.915 171.468L258.841 171.495L229.791 209.993L171.754 229.219L171.68 229.246L142.63 267.744L84.6021 286.97L84.5285 286.997L56.6193 323.982H57.2084L84.9243 287.25L142.952 268.024L143.026 267.997L172.076 229.5L230.113 210.274L230.187 210.246L259.237 171.749L317.274 152.523L317.348 152.496L346.398 113.998L404.426 94.7721L404.5 94.7449L433.55 56.2474L488.991 37.8817V37.4922L433.246 55.9576L433.173 55.9848L433.154 55.9938ZM440.417 60.8026L411.366 99.3001L353.339 118.526L353.265 118.553L324.215 157.051L266.178 176.277L266.104 176.304L237.053 214.802L179.017 234.028L178.943 234.055L149.892 272.552L91.8556 291.778L91.7819 291.806L67.4994 323.982H68.0885L92.1777 292.068L150.205 272.842L150.279 272.815L179.33 234.317L237.366 215.091L237.44 215.064L266.491 176.567L324.518 157.341L324.592 157.313L353.652 118.816L411.679 99.5899L411.753 99.5627L440.813 61.0653L488.982 45.1084V44.719L440.5 60.7845L440.426 60.8117L440.417 60.8026ZM476.73 200.366L447.68 238.864L389.652 258.09L389.578 258.117L360.528 296.614L302.5 315.84L302.427 315.868L296.305 323.982H296.894L302.822 316.13L360.85 296.904L360.924 296.877L389.974 258.38L448.002 239.153L448.075 239.126L477.126 200.629L488.982 196.698V196.309L476.813 200.339L476.739 200.366H476.73ZM483.993 205.175L454.942 243.672L396.915 262.899L396.841 262.926L367.79 301.423L309.763 320.649L309.689 320.676L307.195 323.973H307.784L310.076 320.93L368.103 301.704L368.177 301.677L397.228 263.179L455.255 243.953L455.329 243.926L484.38 205.429L488.973 203.907V203.518L484.067 205.139L483.993 205.166V205.175ZM425.965 166.65L425.892 166.677L396.841 205.175L338.813 224.401L338.74 224.428L309.689 262.926L251.662 282.152L251.588 282.179L222.537 320.676L212.578 323.973H213.747L222.85 320.957L222.924 320.93L251.975 282.432L310.002 263.206L310.076 263.179L339.126 224.682L397.154 205.456L397.228 205.429L426.278 166.931L484.306 147.705L484.38 147.678L488.973 141.592V140.813L483.993 147.415L425.965 166.641V166.65ZM418.703 161.842L418.629 161.869L389.578 200.366L331.551 219.592L331.477 219.619L302.427 258.117L244.399 277.343L244.325 277.37L215.275 315.868L190.79 323.982H191.959L215.588 316.157L215.661 316.13L244.712 277.633L302.74 258.407L302.813 258.38L331.864 219.882L389.891 200.656L389.965 200.629L419.016 162.131L477.043 142.905L477.117 142.878L488.973 127.166V126.387L476.73 142.615L418.703 161.842ZM469.468 80.0559L440.417 118.553L382.389 137.779L382.316 137.807L353.265 176.304L295.238 195.53L295.164 195.557L266.113 234.055L208.086 253.281L208.012 253.308L178.961 291.806L120.934 311.032L120.86 311.059L111.103 323.982H111.692L121.247 311.312L179.274 292.086L179.348 292.059L208.399 253.562L266.426 234.336L266.5 234.308L295.551 195.811L353.578 176.585L353.652 176.558L382.702 138.06L440.73 118.834L440.804 118.807L469.854 80.3095L488.973 73.9793V73.5899L469.541 80.0287L469.468 80.0559ZM483.993 89.6825L454.942 128.18L396.915 147.406L396.841 147.433L367.79 185.931L309.763 205.157L309.689 205.184L280.629 243.681L222.602 262.908L222.528 262.935L193.477 301.432L135.45 320.658L135.376 320.685L132.882 323.982H133.471L135.763 320.939L193.79 301.713L193.864 301.686L222.915 263.188L280.942 243.962L281.016 243.935L310.076 205.438L368.103 186.211L368.177 186.184L397.228 147.687L455.255 128.461L455.329 128.434L484.38 89.9361L488.973 88.4147V88.0253L484.067 89.6463L483.993 89.6735V89.6825ZM476.73 84.8737L447.68 123.371L389.652 142.597L389.578 142.624L360.528 181.122L302.5 200.348L302.427 200.375L273.376 238.873L215.348 258.099L215.275 258.126L186.224 296.623L128.196 315.85L128.123 315.877L122.002 323.991H122.591L128.519 316.139L186.546 296.913L186.62 296.886L215.67 258.389L273.698 239.162L273.772 239.135L302.822 200.638L360.85 181.412L360.924 181.385L389.974 142.887L448.002 123.661L448.075 123.634L477.126 85.1364L488.982 81.206V80.8166L476.813 84.8466L476.739 84.8737H476.73ZM447.68 65.6205L418.62 104.118L360.592 123.344L360.519 123.371L331.468 161.869L273.44 181.095L273.367 181.122L244.316 219.619L186.288 238.846L186.215 238.873L157.164 277.37L99.1366 296.596L99.063 296.623L78.4164 323.982H79.0055L99.4588 296.877L157.486 277.651L157.56 277.624L186.611 239.126L244.638 219.9L244.712 219.873L273.763 181.376L331.79 162.149L331.864 162.122L360.914 123.625L418.942 104.399L419.016 104.372L448.066 65.8741L488.973 52.3261V51.9367L447.753 65.5933L447.68 65.6205ZM425.965 51.1579L425.892 51.1851L396.841 89.6825L338.813 108.909L338.74 108.936L309.689 147.433L251.662 166.659L251.588 166.687L222.537 205.184L164.51 224.41L164.436 224.437L135.385 262.935L77.3487 282.161L77.275 282.188L48.2244 320.685L38.2647 323.982H39.4337L48.5374 320.966L48.611 320.939L77.6616 282.442L135.689 263.215L135.763 263.188L164.813 224.691L222.841 205.465L222.915 205.438L251.965 166.94L309.993 147.714L310.067 147.687L339.117 109.189L397.145 89.9633L397.218 89.9361L426.269 51.4386L484.297 32.2125L484.37 32.1854L488.964 26.0997V25.3208L483.984 31.9227L425.956 51.1488L425.965 51.1579ZM454.942 70.4383L425.892 108.936L367.855 128.162L367.781 128.189L338.731 166.687L280.703 185.913L280.629 185.94L251.579 224.437L193.551 243.663L193.477 243.691L164.427 282.188L106.399 301.414L106.326 301.441L89.3058 323.991H89.8949L106.712 301.704L164.74 282.478L164.813 282.451L193.864 243.953L251.892 224.727L251.965 224.7L281.016 186.202L339.044 166.976L339.117 166.949L368.168 128.452L426.195 109.226L426.269 109.198L455.32 70.701L488.964 59.5529V59.1635L455.007 70.4112L454.933 70.4383H454.942ZM469.468 195.566L440.417 234.064L382.389 253.29L382.316 253.317L353.265 291.815L295.228 311.041L295.155 311.068L285.398 323.991H285.987L295.541 311.321L353.569 292.095L353.643 292.068L382.693 253.571L440.721 234.345L440.794 234.317L469.845 195.82L488.964 189.49V189.1L469.532 195.539L469.458 195.566H469.468ZM476.73 27.1321L418.703 46.3582L418.629 46.3853L389.578 84.8828L331.551 104.109L331.477 104.136L302.427 142.634L244.399 161.86L244.325 161.887L215.275 200.384L157.247 219.61L157.173 219.638L128.123 258.135L70.0952 277.361L70.0216 277.388L40.9709 315.886L16.486 324H17.655L41.2839 316.176L41.3576 316.148L70.4082 277.651L128.436 258.425L128.509 258.398L157.56 219.9L215.597 200.674L215.67 200.647L244.721 162.149L302.749 142.923L302.822 142.896L331.873 104.399L389.901 85.1726L389.974 85.1454L419.025 46.648L477.052 27.4219L477.126 27.3947L488.982 11.6914V10.9126L476.739 27.1411L476.73 27.1321ZM462.205 75.2562L433.154 113.754L375.118 132.98L375.044 133.007L345.993 171.504L287.966 190.73L287.892 190.758L258.841 229.255L200.814 248.481L200.74 248.508L171.69 287.006L113.662 306.232L113.588 306.259L100.204 324H100.794L113.984 306.522L172.012 287.296L172.085 287.268L201.145 248.771L259.173 229.545L259.246 229.518L288.306 191.02L346.334 171.794L346.408 171.767L375.458 133.27L433.495 114.043L433.569 114.016L462.619 75.5188L489 66.7797V66.3903L462.306 75.229L462.233 75.2562H462.205ZM447.68 296.632L427.033 323.991H427.622L448.075 296.886L488.982 283.338V282.949L447.763 296.605L447.689 296.632H447.68ZM454.942 301.441L437.922 323.991H438.512L455.338 301.704L488.982 290.556V290.166L455.025 301.414L454.952 301.441H454.942ZM433.154 287.006L405.245 323.991H405.834L433.55 287.259L488.991 268.894V268.504L433.246 286.97L433.173 286.997L433.154 287.006ZM462.205 306.259L448.821 324H449.41L462.601 306.522L488.982 297.783V297.393L462.288 306.232L462.214 306.259H462.205ZM425.965 282.17L425.892 282.197L396.841 320.695L386.881 323.991H388.05L397.154 320.975L397.228 320.948L426.278 282.451L484.306 263.225L484.38 263.197L488.973 257.112V256.333L483.993 262.935L425.965 282.161V282.17ZM483.993 320.695L481.498 323.991H482.087L484.38 320.948L488.973 319.427V319.037L484.067 320.658L483.993 320.685V320.695ZM476.73 315.886L470.609 324H471.198L477.126 316.148L488.982 312.218V311.829L476.813 315.859L476.739 315.886H476.73ZM462.205 190.758L433.154 229.255L375.118 248.481L375.044 248.508L345.993 287.006L287.966 306.232L287.892 306.259L274.508 324H275.097L288.288 306.522L346.315 287.296L346.389 287.268L375.44 248.771L433.477 229.545L433.55 229.518L462.601 191.02L488.982 182.281V181.892L462.288 190.73L462.214 190.758H462.205ZM469.468 311.068L459.71 323.991H460.3L469.854 311.321L488.973 304.991V304.602L469.541 311.041L469.468 311.068ZM418.703 277.352L418.629 277.379L389.578 315.877L365.093 323.991H366.262L389.891 316.166L389.965 316.139L419.016 277.642L477.043 258.416L477.117 258.389L488.973 242.676V241.897L476.73 258.126L418.703 277.352ZM440.417 176.313L411.366 214.811L353.339 234.037L353.265 234.064L324.215 272.561L266.178 291.787L266.104 291.815L241.822 323.991H242.411L266.5 292.077L324.527 272.851L324.601 272.824L353.652 234.327L411.679 215.1L411.753 215.073L440.804 176.576L488.973 160.619V160.23L440.491 176.295L440.417 176.322V176.313ZM454.942 185.94L425.892 224.437L367.855 243.663L367.781 243.691L338.731 282.188L280.703 301.414L280.629 301.441L263.61 323.991H264.199L281.016 301.704L339.044 282.478L339.117 282.451L368.168 243.953L426.195 224.727L426.269 224.7L455.32 186.202L488.964 175.054V174.665L455.007 185.913L454.933 185.94H454.942ZM447.68 181.131L418.629 219.628L360.601 238.855L360.528 238.882L331.477 277.379L273.44 296.605L273.367 296.632L252.72 323.991H253.309L273.763 296.886L331.79 277.66L331.864 277.633L360.914 239.135L418.942 219.909L419.016 219.882L448.066 181.385L488.973 167.837V167.447L447.753 181.104L447.68 181.131ZM433.154 171.504L404.104 210.002L346.076 229.228L346.003 229.255L316.952 267.753L258.915 286.979L258.841 287.006L230.932 323.991H231.521L259.237 287.259L317.274 268.033L317.348 268.006L346.398 229.509L404.426 210.283L404.5 210.255L433.55 171.758L488.991 153.392V153.003L433.246 171.468L433.173 171.495L433.154 171.504ZM411.44 272.543L411.366 272.57L382.316 311.068L343.305 323.991H344.474L382.629 311.349L382.702 311.321L411.753 272.824L469.781 253.598L469.854 253.571L488.973 228.241V227.462L469.468 253.308L411.44 272.534V272.543ZM404.177 267.734L404.104 267.762L375.053 306.259L321.508 324H322.677L375.357 306.549L375.431 306.522L404.481 268.024L462.509 248.798L462.582 248.771L488.964 213.814V213.036L462.196 248.508L404.168 267.734H404.177ZM440.417 291.824L416.135 324H416.724L440.813 292.086L488.982 276.129V275.74L440.5 291.806L440.426 291.833L440.417 291.824ZM34.0489 138.06L92.0765 118.834L92.1501 118.807L121.201 80.3095L179.228 61.0834L179.302 61.0562L208.362 22.5587L266.408 3.33264L266.481 3.30548L268.976 0H268.387L266.095 3.04285L208.067 22.2689L207.994 22.2961L178.943 60.7936L120.915 80.0197L120.842 80.0468L91.7911 118.544L33.7635 137.77L33.6899 137.798L4.60244 176.304L0.00920489 177.826V178.215L4.98905 176.567L34.0397 138.069L34.0489 138.06ZM19.5236 186.184L48.5742 147.687L106.602 128.461L106.675 128.434L135.726 89.9361L193.754 70.71L193.827 70.6828L222.878 32.1854L280.906 12.9593L280.979 12.9321L290.736 0.0090561H290.147L280.583 12.6785L222.556 31.9046L222.482 31.9318L193.431 70.4293L135.404 89.6554L135.33 89.6825L106.28 128.18L48.252 147.406L48.1784 147.433L19.1278 185.931L0.00920489 192.261V192.65L19.4407 186.211L19.5144 186.184H19.5236ZM70.2885 219.9L70.3622 219.873L99.4128 181.376L157.44 162.149L157.514 162.122L186.565 123.625L244.592 104.399L244.666 104.372L273.717 65.8741L331.744 46.648L331.818 46.6208L360.868 8.12332L385.399 0.0090561H384.23L360.592 7.84258L360.519 7.86975L331.468 46.3672L273.431 65.5933L273.358 65.6205L244.307 104.118L186.279 123.344L186.206 123.371L157.155 161.869L99.1274 181.095L99.0538 181.122L70.0032 219.619L11.9756 238.846L11.9019 238.873L0.00920489 254.576V255.355L12.2517 239.126L70.2793 219.9H70.2885ZM63.0259 215.091L63.0995 215.064L92.1501 176.567L150.178 157.341L150.251 157.313L179.302 118.816L237.339 99.5899L237.412 99.5627L266.463 61.0653L324.491 41.8392L324.564 41.812L353.652 3.31453L363.621 0.0090561H362.452L353.348 3.02474L353.274 3.0519L324.215 41.5494L266.187 60.7755L266.113 60.8026L237.063 99.3001L179.026 118.526L178.952 118.553L149.902 157.051L91.8648 176.277L91.7911 176.304L62.7405 214.802L4.7129 234.028L4.63926 234.055L0.0460244 240.141V240.919L5.02587 234.317L63.0535 215.091H63.0259ZM14.9579 0.0090561H13.7889L4.67608 3.02474L4.60244 3.0519L0.00920489 9.1376V9.91643L4.98905 3.31453L14.9579 0.0090561ZM41.3115 200.62L70.3622 162.122L128.39 142.896L128.463 142.869L157.514 104.372L215.551 85.1454L215.624 85.1183L244.684 46.6208L302.712 27.3947L302.786 27.3675L323.451 0.0090561H322.861L302.408 27.114L244.381 46.34L244.307 46.3672L215.247 84.8647L157.219 104.091L157.146 104.118L128.095 142.615L70.0584 161.842L69.9847 161.869L40.9341 200.366L0.00920489 213.914V214.303L41.2287 200.647L41.3023 200.62H41.3115ZM34.0489 195.811L63.0995 157.313L121.136 138.087L121.21 138.06L150.261 99.5627L208.288 80.3366L208.362 80.3095L237.412 41.812L295.44 22.5859L295.514 22.5587L312.561 0.0090561H311.972L295.146 22.3052L237.118 41.5313L237.044 41.5584L207.994 80.0559L149.966 99.282L149.892 99.3092L120.842 137.807L62.8049 157.033L62.7313 157.06L33.6807 195.557L0.00920489 206.696V207.086L33.966 195.838L34.0397 195.811H34.0489ZM26.7862 191.002L55.8368 152.505L113.874 133.279L113.947 133.251L142.998 94.754L201.026 75.5279L201.099 75.5007L230.15 37.0032L288.177 17.7771L288.251 17.75L301.663 0.0090561H301.073L287.883 17.4873L229.855 36.7134L229.782 36.7406L200.731 75.2381L142.703 94.4642L142.63 94.4913L113.579 132.989L55.5423 152.215L55.4686 152.242L26.418 190.74L0.00920489 199.479V199.868L26.7034 191.029L26.777 191.002H26.7862ZM19.5236 301.686L48.5834 263.188L106.611 243.962L106.685 243.935L135.735 205.438L193.763 186.211L193.837 186.184L222.887 147.687L280.915 128.461L280.988 128.434L310.039 89.9361L368.067 70.71L368.14 70.6828L397.191 32.1854L455.218 12.9593L455.292 12.9321L465.049 0.0090561H464.46L454.906 12.6785L396.878 31.9046L396.804 31.9318L367.754 70.4293L309.726 89.6554L309.652 89.6825L280.602 128.18L222.574 147.406L222.501 147.433L193.45 185.931L135.422 205.157L135.349 205.184L106.298 243.681L48.2704 262.908L48.1968 262.935L19.1462 301.432L0.0276147 307.762V308.152L19.4591 301.713L19.5328 301.686H19.5236ZM12.2609 296.877L41.3115 258.38L99.3391 239.153L99.4128 239.126L128.463 200.629L186.491 181.403L186.565 181.376L215.615 142.878L273.643 123.652L273.717 123.625L302.767 85.1273L360.795 65.9012L360.868 65.8741L389.919 27.3766L447.947 8.15049L448.02 8.12332L454.141 0.0090561H453.552L447.624 7.86069L389.597 27.0868L389.523 27.114L360.473 65.6114L302.445 84.8375L302.371 84.8647L273.321 123.362L215.293 142.588L215.219 142.615L186.169 181.113L128.141 200.339L128.068 200.366L99.017 238.864L40.9894 258.09L40.9157 258.117L11.8651 296.614L0.00920489 300.545V300.934L12.1781 296.904L12.2517 296.877H12.2609ZM34.0489 253.562L92.0765 234.336L92.1501 234.308L121.201 195.811L179.228 176.585L179.302 176.558L208.353 138.06L266.38 118.834L266.454 118.807L295.504 80.3095L353.532 61.0834L353.606 61.0562L382.656 22.5587L440.73 3.33264L440.804 3.30548L443.298 0H442.709L440.417 3.04285L382.389 22.2689L382.316 22.2961L353.265 60.7936L295.228 80.0197L295.155 80.0468L266.095 118.544L208.067 137.77L207.994 137.798L178.943 176.295L120.915 195.521L120.842 195.548L91.7911 234.046L33.7635 253.272L33.6899 253.299L4.63006 291.797L0.0368195 293.318V293.707L5.01666 292.059L34.0673 253.562H34.0489ZM77.5512 224.709L77.6248 224.682L106.675 186.184L164.703 166.958L164.777 166.931L193.827 128.434L251.855 109.207L251.929 109.18L280.979 70.6828L339.007 51.4567L339.08 51.4296L368.131 12.9321L407.197 0.0090561H406.028L367.864 12.6514L367.79 12.6785L338.74 51.176L280.712 70.4021L280.639 70.4293L251.588 108.927L193.56 128.153L193.487 128.18L164.436 166.677L106.408 185.904L106.335 185.931L77.2842 224.428L19.2566 243.654L19.183 243.681L0.00920489 269.011V269.79L19.5144 243.935L77.542 224.709H77.5512ZM34.0489 311.303L63.0995 272.806L121.136 253.58L121.21 253.553L150.261 215.055L208.288 195.829L208.362 195.802L237.422 157.304L295.449 138.078L295.523 138.051L324.574 99.5537L382.601 80.3276L382.675 80.3004L411.725 41.8029L469.753 22.5769L469.827 22.5497L486.883 0.0090561H486.294L469.468 22.3052L411.44 41.5313L411.366 41.5584L382.316 80.0559L324.288 99.282L324.215 99.3092L295.164 137.807L237.136 157.033L237.063 157.06L208.003 195.557L149.975 214.783L149.902 214.811L120.851 253.308L62.8142 272.534L62.7405 272.561L33.6899 311.059L0.00920489 322.198V322.587L33.966 311.34L34.0397 311.312L34.0489 311.303ZM84.8138 229.518L84.8875 229.491L113.938 190.993L171.966 171.767L172.039 171.74L201.09 133.242L259.118 114.016L259.191 113.989L288.242 75.4916L346.269 56.2655L346.343 56.2384L375.394 17.7409L428.985 0.0090561H427.816L375.127 17.4602L375.053 17.4873L346.003 55.9848L287.975 75.2109L287.901 75.2381L258.851 113.736L200.823 132.962L200.749 132.989L171.699 171.486L113.671 190.712L113.598 190.74L84.5469 229.237L26.5193 248.463L26.4456 248.49L0.00920489 283.447V284.226L26.777 248.753L84.8046 229.527L84.8138 229.518ZM48.5742 205.429L77.6248 166.931L135.652 147.705L135.726 147.678L164.777 109.18L222.804 89.9542L222.878 89.927L251.929 51.4296L309.956 32.2035L310.03 32.1763L334.349 0.0090561H333.76L309.671 31.9227L251.643 51.1488L251.57 51.176L222.519 89.6735L164.491 108.9L164.418 108.927L135.367 147.424L77.3303 166.65L77.2566 166.677L48.206 205.175L0.00920489 221.132V221.521L48.4913 205.456L48.565 205.429H48.5742ZM26.7862 306.495L55.8368 267.997L113.874 248.771L113.947 248.744L142.998 210.246L201.026 191.02L201.099 190.993L230.15 152.496L288.177 133.27L288.251 133.242L317.302 94.7449L375.329 75.5188L375.403 75.4916L404.454 36.9942L462.481 17.7681L462.555 17.7409L475.939 0H475.35L462.159 17.4783L404.131 36.7044L404.058 36.7315L375.007 75.229L316.979 94.4551L316.906 94.4823L287.855 132.98L229.828 152.206L229.754 152.233L200.703 190.73L142.676 209.957L142.602 209.984L113.551 248.481L55.5147 267.707L55.441 267.734L26.3904 306.232L0.00920489 314.98V315.37L26.7034 306.531L26.777 306.504L26.7862 306.495ZM12.2517 181.376L41.3023 142.878L99.3299 123.652L99.4036 123.625L128.454 85.1273L186.482 65.9012L186.555 65.8741L215.606 27.3766L273.634 8.15049L273.707 8.12332L279.829 0.0090561H279.239L273.311 7.86069L215.284 27.0868L215.21 27.114L186.16 65.6114L128.132 84.8375L128.058 84.8647L99.0078 123.362L40.9802 142.588L40.9065 142.615L11.8559 181.113L0 185.043V185.433L12.1689 181.403L12.2425 181.376H12.2517ZM26.777 75.5007L55.8276 37.0032L113.864 17.7771L113.938 17.75L127.331 0.0090561H126.742L113.551 17.4873L55.5147 36.7134L55.441 36.7406L26.3904 75.2381L0.00920489 83.9772V84.3666L26.7034 75.5279L26.777 75.5007ZM41.3023 85.1273L70.353 46.6298L128.381 27.4038L128.454 27.3766L149.119 0.0090561H148.53L128.077 27.114L70.04 46.34L69.9663 46.3672L40.9157 84.8647L0.00920489 98.4126V98.802L41.2287 85.1454L41.3023 85.1183V85.1273ZM48.565 89.9361L77.6156 51.4386L135.643 32.2125L135.717 32.1854L160.018 0.0090561H159.429L135.339 31.9227L77.3026 51.1488L77.229 51.176L48.1784 89.6735L0.00920489 105.639V106.029L48.4913 89.9633L48.565 89.9361ZM34.0397 80.3095L63.0903 41.812L121.127 22.5859L121.201 22.5587L138.23 0.0090561H137.641L120.814 22.3052L62.7773 41.5313L62.7037 41.5584L33.6531 80.0559L0.00920489 91.1949V91.5843L33.966 80.3366L34.0397 80.3095ZM55.8276 94.7449L84.8783 56.2474L142.906 37.0213L142.98 36.9942L170.916 0.0090561H170.327L142.611 36.7406L84.5837 55.9667L84.5101 55.9938L55.4594 94.4913L0.00920489 112.857V113.246L55.754 94.7811L55.8276 94.754V94.7449ZM36.7459 0.0090561H35.5769L11.9387 7.84258L11.8651 7.86975L0.00920489 23.573V24.3518L12.2517 8.12332L36.7459 0.0090561ZM80.331 0.0090561H79.162L26.4733 17.4602L26.3996 17.4873L0.00920489 52.4529V53.2317L26.777 17.75L80.331 0.0090561ZM58.5431 0.0090561H57.3741L19.2014 12.6514L19.1278 12.6785L0.00920489 38.0084V38.7873L19.5144 12.9321L58.5339 0.0090561H58.5431ZM63.0259 99.5899L63.0995 99.5627L92.1501 61.0653L150.178 41.8392L150.251 41.812L179.32 3.31453L189.289 0.0090561H188.12L179.017 3.02474L178.943 3.0519L149.892 41.5494L91.8556 60.7755L91.7819 60.8026L62.7313 99.3001L4.67608 118.526L4.60244 118.553L0.00920489 124.639V125.418L4.98905 118.816L63.0167 99.5899H63.0259ZM19.5236 70.6919L48.5742 32.1944L106.602 12.9593L106.675 12.9321L116.442 0.0090561H115.853L106.289 12.6785L48.2612 31.9046L48.1876 31.9318L19.137 70.4293L0.00920489 76.7595V77.1489L19.4407 70.71L19.5144 70.6828L19.5236 70.6919ZM84.823 114.034L84.8967 114.007L113.947 75.5097L171.975 56.2836L172.049 56.2565L201.099 17.759L254.653 0.0090561H253.484L200.795 17.4602L200.722 17.4873L171.671 55.9848L113.644 75.2109L113.57 75.2381L84.5193 113.736L26.4917 132.962L26.418 132.989L0.00920489 167.945V168.724L26.777 133.251L84.8046 114.025L84.823 114.034ZM70.2977 104.408L70.3714 104.381L99.422 65.8831L157.45 46.657L157.523 46.6298L186.574 8.13238L211.077 0.0090561H209.908L186.27 7.84258L186.196 7.86975L157.146 46.3672L99.1182 65.5933L99.0446 65.6205L69.994 104.118L11.9664 123.344L11.8927 123.371L0.00920489 139.074V139.853L12.2517 123.625L70.2793 104.399L70.2977 104.408ZM77.5604 109.217L77.634 109.189L106.694 70.6919L164.721 51.4658L164.795 51.4386L193.846 12.9412L232.865 0.0090561H231.696L193.533 12.6514L193.459 12.6785L164.408 51.176L106.381 70.4021L106.307 70.4293L77.2566 108.927L19.229 128.153L19.1554 128.18L0.00920489 153.51V154.289L19.5144 128.443L77.542 109.217H77.5604ZM12.2517 65.8741L41.3115 27.3766L99.3391 8.15049L99.4128 8.12332L105.543 0.0090561H104.954L99.0262 7.86069L40.9986 27.0868L40.9249 27.114L11.8651 65.6114L0.00920489 69.5418V69.9312L12.1781 65.9012L12.2517 65.8741ZM34.0489 22.5587L92.0765 3.33264L92.1501 3.30548L94.6446 0H94.0555L91.7635 3.04285L33.7359 22.278L33.6623 22.3052L4.60244 60.8026L0.00920489 62.3241V62.7135L4.98905 61.0653L34.0489 22.5587ZM55.8368 210.246L84.8875 171.749L142.915 152.523L142.989 152.496L172.039 113.998L230.076 94.7721L230.15 94.7449L259.2 56.2474L317.237 37.0213L317.311 36.9942L345.238 0.0090561H344.649L316.933 36.7406L258.897 55.9667L258.823 55.9938L229.772 94.4913L171.736 113.717L171.662 113.745L142.611 152.242L84.5837 171.468L84.5101 171.495L55.4594 209.993L0.00920489 228.349V228.739L55.754 210.274L55.8276 210.246H55.8368Z" fill="#D69745" fill-opacity="0.5"/>
</svg>
