<svg width="779" height="516" viewBox="0 0 779 516" fill="none" xmlns="http://www.w3.org/2000/svg">
<path d="M654.638 249.618L654.521 249.661L608.299 310.86L515.972 341.423L515.855 341.467L469.632 402.665L377.305 433.229L377.188 433.272L330.966 494.471L268.882 515.014H270.742L331.449 494.917L331.566 494.874L377.803 433.675L470.13 403.112L470.248 403.069L516.484 341.87L608.812 311.306L608.929 311.263L655.151 250.064L747.478 219.501L747.595 219.458L778.015 179.191V177.953L746.98 219.04L654.653 249.604L654.638 249.618ZM643.083 241.974L642.966 242.017L596.743 303.216L504.416 333.779L504.299 333.822L458.077 395.021L365.75 425.584L365.633 425.628L319.41 486.826L234.216 515.029H236.076L319.894 487.287L320.011 487.244L366.233 426.045L458.56 395.482L458.677 395.439L504.9 334.24L597.227 303.676L597.344 303.633L643.566 242.434L735.893 211.871L736.01 211.828L777.985 156.258V155.02L735.395 211.41L643.068 241.974H643.083ZM689.188 89.0125L642.966 150.211L550.638 180.775L550.521 180.818L504.299 242.017L411.957 272.58L411.84 272.623L365.618 333.822L273.276 364.386L273.159 364.429L226.937 425.628L134.61 456.191L134.492 456.234L90.0864 515.029H91.0237L135.122 456.637L227.449 426.074L227.567 426.031L273.789 364.832L366.131 334.268L366.248 334.225L412.47 273.026L504.812 242.463L504.929 242.42L551.151 181.221L643.478 150.658L643.595 150.614L689.818 89.4156L778.029 60.2199V59.6008L689.334 88.9549L689.217 88.9981L689.188 89.0125ZM700.743 96.657L654.521 157.856L562.194 188.419L562.077 188.462L515.855 249.661L423.513 280.225L423.396 280.268L377.173 341.467L284.832 372.03L284.715 372.073L238.492 433.272L146.151 463.835L146.033 463.879L107.398 515.029H108.335L146.663 464.296L238.99 433.733L239.107 433.69L285.33 372.491L377.671 341.927L377.789 341.884L424.011 280.685L516.338 250.122L516.455 250.079L562.692 188.88L655.019 158.316L655.136 158.273L701.373 97.0745L778.015 71.7081V71.0891L700.875 96.6282L700.758 96.6714L700.743 96.657ZM758.521 318.519L712.299 379.718L619.972 410.281L619.855 410.324L573.632 471.523L481.305 502.087L481.188 502.13L471.449 515.029H472.386L481.818 502.547L574.145 471.984L574.262 471.941L620.484 410.742L712.811 380.178L712.929 380.135L759.151 318.936L778.015 312.688V312.069L758.653 318.476L758.536 318.519H758.521ZM770.077 326.163L723.854 387.362L631.527 417.926L631.41 417.969L585.188 479.168L492.861 509.731L492.744 509.774L488.775 515.014H489.712L493.359 510.177L585.686 479.614L585.803 479.571L632.025 418.372L724.352 387.808L724.47 387.765L770.692 326.566L778 324.148V323.529L770.194 326.106L770.077 326.149V326.163ZM677.749 264.921L677.632 264.964L631.41 326.163L539.083 356.727L538.966 356.77L492.744 417.969L400.416 448.532L400.299 448.575L354.077 509.774L338.23 515.014H340.09L354.575 510.22L354.692 510.177L400.914 448.978L493.242 418.415L493.359 418.372L539.581 357.173L631.908 326.61L632.025 326.566L678.247 265.368L770.575 234.804L770.692 234.761L778 225.087V223.849L770.077 234.344L677.749 264.907V264.921ZM666.194 257.277L666.077 257.32L619.855 318.519L527.527 349.082L527.41 349.125L481.188 410.324L388.861 440.888L388.744 440.931L342.521 502.13L303.564 515.029H305.424L343.019 502.59L343.137 502.547L389.359 441.348L481.686 410.785L481.803 410.742L528.025 349.543L620.352 318.98L620.47 318.936L666.692 257.738L759.019 227.174L759.136 227.131L778 202.153V200.915L758.521 226.713L666.194 257.277ZM746.966 127.264L700.743 188.462L608.416 219.026L608.299 219.069L562.077 280.268L469.75 310.831L469.632 310.874L423.41 372.073L331.083 402.637L330.966 402.68L284.744 463.879L192.417 494.442L192.299 494.485L176.775 515.029H177.712L192.915 494.888L285.242 464.325L285.359 464.282L331.581 403.083L423.908 372.52L424.025 372.476L470.248 311.277L562.575 280.714L562.692 280.671L608.914 219.472L701.241 188.909L701.358 188.865L747.581 127.667L778 117.604V116.985L747.083 127.22L746.966 127.264ZM770.077 142.567L723.854 203.766L631.527 234.329L631.41 234.372L585.188 295.571L492.861 326.135L492.744 326.178L446.507 387.377L354.18 417.94L354.062 417.983L307.84 479.182L215.513 509.745L215.396 509.789L211.427 515.029H212.364L216.011 510.192L308.338 479.628L308.455 479.585L354.678 418.386L447.005 387.823L447.122 387.78L493.359 326.581L585.686 296.017L585.803 295.974L632.025 234.775L724.352 204.212L724.47 204.169L770.692 142.97L778 140.551V139.932L770.194 142.509L770.077 142.552V142.567ZM758.521 134.922L712.299 196.121L619.972 226.685L619.855 226.728L573.632 287.927L481.305 318.49L481.188 318.533L434.966 379.732L342.639 410.295L342.521 410.339L296.299 471.537L203.972 502.101L203.855 502.144L194.116 515.043H195.053L204.485 502.562L296.812 471.998L296.929 471.955L343.151 410.756L435.478 380.193L435.596 380.15L481.818 318.951L574.145 288.387L574.262 288.344L620.484 227.145L712.811 196.582L712.929 196.539L759.151 135.34L778.015 129.092V128.473L758.653 134.879L758.536 134.922H758.521ZM712.299 104.316L666.062 165.515L573.735 196.078L573.618 196.121L527.396 257.32L435.068 287.883L434.951 287.927L388.729 349.125L296.402 379.689L296.285 379.732L250.062 440.931L157.735 471.494L157.618 471.537L124.768 515.029H125.705L158.248 471.941L250.575 441.377L250.692 441.334L296.914 380.135L389.242 349.572L389.359 349.529L435.581 288.33L527.908 257.766L528.025 257.723L574.247 196.524L666.575 165.961L666.692 165.918L712.914 104.719L778 83.182V82.563L712.416 104.273L712.299 104.316ZM677.749 81.3249L677.632 81.3681L631.41 142.567L539.083 173.13L538.966 173.173L492.744 234.372L400.416 264.936L400.299 264.979L354.077 326.178L261.75 356.741L261.633 356.784L215.411 417.983L123.069 448.547L122.952 448.59L76.7294 509.789L60.8826 515.029H62.7426L77.2273 510.235L77.3445 510.192L123.567 448.993L215.894 418.429L216.011 418.386L262.233 357.187L354.56 326.624L354.678 326.581L400.9 265.382L493.227 234.819L493.344 234.775L539.566 173.577L631.893 143.013L632.011 142.97L678.233 81.7712L770.56 51.2078L770.677 51.1646L777.985 41.4902V40.2521L770.062 50.7471L677.735 81.3105L677.749 81.3249ZM723.854 111.975L677.632 173.173L585.29 203.737L585.173 203.78L538.951 264.979L446.624 295.542L446.507 295.585L400.285 356.784L307.957 387.348L307.84 387.391L261.618 448.59L169.291 479.153L169.174 479.196L142.094 515.043H143.031L169.789 479.614L262.116 449.05L262.233 449.007L308.455 387.808L400.783 357.245L400.9 357.202L447.122 296.003L539.449 265.44L539.566 265.396L585.788 204.198L678.116 173.634L678.233 173.591L724.455 112.392L777.985 94.6703V94.0512L723.957 111.931L723.84 111.975H723.854ZM746.966 310.889L700.743 372.088L608.416 402.651L608.299 402.694L562.077 463.893L469.735 494.456L469.618 494.5L454.093 515.043H455.031L470.233 494.903L562.56 464.339L562.677 464.296L608.899 403.097L701.227 372.534L701.344 372.491L747.566 311.292L777.985 301.229V300.61L747.068 310.846L746.951 310.889H746.966ZM758.521 43.1314L666.194 73.6948L666.077 73.738L619.855 134.937L527.527 165.5L527.41 165.543L481.188 226.742L388.861 257.306L388.744 257.349L342.521 318.548L250.194 349.111L250.077 349.154L203.855 410.353L111.528 440.917L111.411 440.96L65.1885 502.158L26.2306 515.058H28.0907L65.6864 502.619L65.8036 502.576L112.026 441.377L204.353 410.814L204.47 410.771L250.692 349.572L343.034 319.008L343.151 318.965L389.373 257.766L481.701 227.203L481.818 227.16L528.04 165.961L620.367 135.398L620.484 135.354L666.706 74.1555L759.034 43.5921L759.151 43.5489L778.015 18.5857V17.3476L758.536 43.1458L758.521 43.1314ZM735.41 119.634L689.188 180.832L596.846 211.396L596.729 211.439L550.507 272.638L458.179 303.201L458.062 303.244L411.84 364.443L319.513 395.007L319.396 395.05L273.174 456.249L180.846 486.812L180.729 486.855L159.434 515.058H160.372L181.359 487.273L273.686 456.709L273.803 456.666L320.04 395.467L412.367 364.904L412.485 364.861L458.721 303.662L551.049 273.098L551.166 273.055L597.388 211.856L689.73 181.293L689.847 181.25L736.069 120.051L778.044 106.159V105.54L735.571 119.59L735.454 119.634H735.41ZM712.299 471.552L679.448 515.043H680.386L712.929 471.955L778.015 450.418V449.799L712.431 471.509L712.314 471.552H712.299ZM723.854 479.196L696.774 515.043H697.712L724.484 479.614L778.015 461.892V461.273L723.986 479.153L723.869 479.196H723.854ZM689.188 456.249L644.782 515.043H645.719L689.818 456.652L778.029 427.456V426.837L689.334 456.191L689.217 456.234L689.188 456.249ZM735.41 486.855L714.115 515.058H715.052L736.04 487.273L778.015 473.38V472.761L735.542 486.812L735.425 486.855H735.41ZM677.749 448.561L677.632 448.604L631.41 509.803L615.563 515.043H617.423L631.908 510.249L632.025 510.206L678.247 449.007L770.575 418.444L770.692 418.401L778 408.726V407.488L770.077 417.983L677.749 448.547V448.561ZM770.077 509.803L766.108 515.043H767.045L770.692 510.206L778 507.787V507.168L770.194 509.745L770.077 509.789V509.803ZM758.521 502.158L748.782 515.058H749.719L759.151 502.576L778.015 496.328V495.709L758.653 502.115L758.536 502.158H758.521ZM735.41 303.244L689.188 364.443L596.846 395.007L596.729 395.05L550.507 456.249L458.179 486.812L458.062 486.855L436.767 515.058H437.705L458.692 487.273L551.019 456.709L551.136 456.666L597.359 395.467L689.7 364.904L689.818 364.861L736.04 303.662L778.015 289.769V289.15L735.542 303.201L735.425 303.244H735.41ZM746.966 494.5L731.441 515.043H732.378L747.581 494.903L778 484.84V484.221L747.083 494.456L746.966 494.5ZM666.194 440.902L666.077 440.945L619.855 502.144L580.897 515.043H582.757L620.352 502.605L620.47 502.562L666.692 441.363L759.019 410.799L759.136 410.756L778 385.779V384.54L758.521 410.339L666.194 440.902ZM700.743 280.282L654.521 341.481L562.194 372.044L562.077 372.088L515.855 433.286L423.513 463.85L423.396 463.893L384.76 515.043H385.697L424.025 464.311L516.353 433.747L516.47 433.704L562.692 372.505L655.019 341.942L655.136 341.898L701.358 280.7L778 255.333V254.714L700.86 280.253L700.743 280.297V280.282ZM723.854 295.585L677.632 356.784L585.29 387.348L585.173 387.391L538.951 448.59L446.624 479.153L446.507 479.196L419.427 515.043H420.364L447.122 479.614L539.449 449.05L539.566 449.007L585.788 387.808L678.116 357.245L678.233 357.202L724.455 296.003L777.985 278.281V277.662L723.957 295.542L723.84 295.585H723.854ZM712.299 287.941L666.077 349.14L573.75 379.703L573.632 379.746L527.41 440.945L435.068 471.509L434.951 471.552L402.101 515.043H403.038L435.581 471.955L527.908 441.392L528.025 441.348L574.247 380.15L666.575 349.586L666.692 349.543L712.914 288.344L778 266.807V266.188L712.416 287.898L712.299 287.941ZM689.188 272.638L642.966 333.837L550.638 364.4L550.521 364.443L504.299 425.642L411.957 456.205L411.84 456.249L367.434 515.043H368.371L412.47 456.652L504.812 426.088L504.929 426.045L551.151 364.846L643.478 334.283L643.595 334.24L689.818 273.041L778.029 243.845V243.226L689.334 272.58L689.217 272.623L689.188 272.638ZM654.638 433.258L654.521 433.301L608.299 494.5L546.23 515.043H548.09L608.797 494.946L608.914 494.903L655.136 433.704L747.463 403.141L747.581 403.097L778 362.831V361.593L746.966 402.68L654.638 433.243V433.258ZM643.083 425.613L642.966 425.656L596.743 486.855L511.549 515.058H513.409L597.227 487.316L597.344 487.273L643.566 426.074L735.893 395.51L736.01 395.467L777.985 339.897V338.659L735.395 395.05L643.068 425.613H643.083ZM700.743 463.907L662.108 515.058H663.045L701.373 464.325L778.015 438.959V438.34L700.875 463.879L700.758 463.922L700.743 463.907ZM54.1748 219.472L146.502 188.909L146.619 188.865L192.841 127.667L285.169 97.1033L285.286 97.0601L331.522 35.8613L423.879 5.29785L423.996 5.25466L427.965 0H427.028L423.381 4.83717L331.054 35.4006L330.937 35.4438L284.715 96.6426L192.387 127.206L192.27 127.249L146.048 188.448L53.7208 219.011L53.6037 219.055L7.3229 280.268L0.0146458 282.686V283.305L7.93803 280.685L54.1602 219.486L54.1748 219.472ZM31.0638 295.974L77.2859 234.775L169.613 204.212L169.73 204.169L215.952 142.97L308.28 112.407L308.397 112.363L354.619 51.1646L446.946 20.6012L447.063 20.558L462.588 0.0143963H461.651L446.434 20.1549L354.106 50.7183L353.989 50.7615L307.767 111.96L215.44 142.524L215.323 142.567L169.1 203.766L76.7733 234.329L76.6562 234.372L30.434 295.571L0.0146458 305.634V306.253L30.9319 296.017L31.0491 295.974H31.0638ZM111.835 349.572L111.953 349.529L158.175 288.33L250.502 257.766L250.619 257.723L296.841 196.524L389.168 165.961L389.286 165.918L435.508 104.719L527.835 74.1555L527.952 74.1123L574.174 12.9135L613.205 0.0143963H611.345L573.735 12.4672L573.618 12.5104L527.396 73.7092L435.054 104.273L434.937 104.316L388.714 165.515L296.387 196.078L296.27 196.121L250.048 257.32L157.721 287.883L157.604 287.927L111.381 349.125L19.0542 379.689L18.937 379.732L0.0146458 404.695V405.933L19.4936 380.135L111.821 349.572H111.835ZM100.28 341.927L100.397 341.884L146.619 280.685L238.946 250.122L239.064 250.079L285.286 188.88L377.628 158.316L377.745 158.273L423.967 97.0745L516.294 66.5111L516.411 66.4679L562.692 5.26906L578.553 0.0143963H576.693L562.209 4.80837L562.091 4.85156L515.855 66.0504L423.527 96.6138L423.41 96.657L377.188 157.856L284.846 188.419L284.729 188.462L238.507 249.661L146.165 280.225L146.048 280.268L99.8258 341.467L7.49865 372.03L7.38149 372.073L0.073229 381.748V382.986L7.99661 372.491L100.324 341.927H100.28ZM23.7994 0.0143963H21.9394L7.44007 4.80837L7.3229 4.85156L0.0146458 14.5259V15.764L7.93803 5.26906L23.7994 0.0143963ZM65.7304 318.922L111.953 257.723L204.28 227.16L204.397 227.117L250.619 165.918L342.961 135.354L343.078 135.311L389.315 74.1123L481.642 43.5489L481.759 43.5057L514.639 0.0143963H513.702L481.159 43.1026L388.832 73.666L388.714 73.7092L342.478 134.908L250.15 165.471L250.033 165.515L203.811 226.713L111.469 257.277L111.352 257.32L65.1299 318.519L0.0146458 340.056V340.675L65.5986 318.965L65.7157 318.922H65.7304ZM54.1748 311.277L100.397 250.079L192.739 219.515L192.856 219.472L239.078 158.273L331.405 127.71L331.522 127.667L377.745 66.4679L470.072 35.9045L470.189 35.8613L497.313 0.0143963H496.376L469.603 35.4582L377.276 66.0216L377.159 66.0648L330.937 127.264L238.609 157.827L238.492 157.87L192.27 219.069L99.9284 249.632L99.8112 249.676L53.589 310.874L0.0146458 328.582V329.201L54.043 311.321L54.1602 311.277H54.1748ZM42.6193 303.633L88.8415 242.434L181.183 211.871L181.3 211.828L227.523 150.629L319.85 120.065L319.967 120.022L366.189 58.8234L458.516 28.26L458.634 28.2168L479.972 0.0143963H479.035L458.048 27.7993L365.72 58.3627L365.603 58.4059L319.381 119.605L227.054 150.168L226.937 150.211L180.715 211.41L88.3728 241.974L88.2556 242.017L42.0335 303.216L0.0146458 317.108V317.727L42.4875 303.676L42.6047 303.633H42.6193ZM31.0638 479.585L77.3006 418.386L169.628 387.823L169.745 387.78L215.967 326.581L308.294 296.017L308.411 295.974L354.634 234.775L446.961 204.212L447.078 204.169L493.3 142.97L585.627 112.407L585.744 112.363L631.967 51.1646L724.294 20.6012L724.411 20.558L739.935 0.0143963H738.998L723.796 20.1549L631.469 50.7183L631.352 50.7615L585.129 111.96L492.802 142.524L492.685 142.567L446.463 203.766L354.136 234.329L354.018 234.372L307.796 295.571L215.469 326.135L215.352 326.178L169.13 387.377L76.8026 417.94L76.6854 417.983L30.4633 479.182L0.0439374 489.245V489.864L30.9612 479.628L31.0784 479.585H31.0638ZM19.5082 471.941L65.7304 410.742L158.058 380.178L158.175 380.135L204.397 318.936L296.724 288.373L296.841 288.33L343.063 227.131L435.391 196.568L435.508 196.524L481.73 135.326L574.057 104.762L574.174 104.719L620.396 43.5201L712.724 12.9567L712.841 12.9135L722.58 0.0143963H721.643L712.211 12.496L619.884 43.0594L619.767 43.1026L573.544 104.301L481.217 134.865L481.1 134.908L434.878 196.107L342.551 226.67L342.434 226.713L296.211 287.912L203.884 318.476L203.767 318.519L157.545 379.718L65.2178 410.281L65.1006 410.324L18.8784 471.523L0.0146458 477.771V478.39L19.3764 471.984L19.4936 471.941H19.5082ZM54.1748 403.083L146.502 372.52L146.619 372.476L192.841 311.277L285.169 280.714L285.286 280.671L331.508 219.472L423.835 188.909L423.952 188.865L470.174 127.667L562.502 97.1033L562.619 97.0601L608.841 35.8613L701.241 5.29785L701.358 5.25466L705.327 0H704.39L700.743 4.83717L608.416 35.4006L608.299 35.4438L562.077 96.6426L469.735 127.206L469.618 127.249L423.381 188.448L331.054 219.011L330.937 219.055L284.715 280.253L192.387 310.817L192.27 310.86L146.048 372.059L53.7208 402.622L53.6037 402.665L7.36684 463.864L0.0585832 466.283V466.902L7.98197 464.282L54.2041 403.083H54.1748ZM123.391 357.216L123.508 357.173L169.73 295.974L262.057 265.411L262.175 265.368L308.397 204.169L400.724 173.605L400.841 173.562L447.063 112.363L539.39 81.8L539.508 81.7568L585.73 20.558L647.887 0.0143963H646.027L585.305 20.1117L585.188 20.1549L538.966 81.3537L446.639 111.917L446.521 111.96L400.299 173.159L307.972 203.722L307.855 203.766L261.633 264.964L169.306 295.528L169.188 295.571L122.966 356.77L30.639 387.333L30.5219 387.377L0.0146458 427.643V428.881L31.0491 387.78L123.376 357.216H123.391ZM54.1748 494.874L100.397 433.675L192.739 403.112L192.856 403.069L239.078 341.87L331.405 311.306L331.522 311.263L377.759 250.064L470.086 219.501L470.204 219.458L516.426 158.259L608.753 127.695L608.87 127.652L655.092 66.4535L747.42 35.8901L747.537 35.8469L774.675 0.0143963H773.738L746.966 35.4582L654.638 66.0216L654.521 66.0648L608.299 127.264L515.972 157.827L515.855 157.87L469.632 219.069L377.305 249.632L377.188 249.676L330.951 310.874L238.624 341.438L238.507 341.481L192.285 402.68L99.943 433.243L99.8258 433.286L53.6037 494.485L0.0146458 512.193V512.812L54.043 494.932L54.1602 494.888L54.1748 494.874ZM134.946 364.861L135.064 364.817L181.286 303.619L273.613 273.055L273.73 273.012L319.952 211.813L412.279 181.25L412.397 181.207L458.619 120.008L550.946 89.4444L551.063 89.4012L597.285 28.2024L682.553 0.0143963H680.693L596.861 27.7561L596.743 27.7993L550.521 88.9981L458.194 119.562L458.077 119.605L411.855 180.804L319.528 211.367L319.41 211.41L273.188 272.609L180.861 303.172L180.744 303.216L134.522 364.414L42.1946 394.978L42.0774 395.021L0.0146458 450.591V451.829L42.6047 395.439L134.932 364.875L134.946 364.861ZM77.2859 326.566L123.508 265.368L215.835 234.804L215.952 234.761L262.175 173.562L354.502 142.999L354.619 142.956L400.841 81.7568L493.168 51.1934L493.285 51.1502L531.98 0.0143963H531.042L492.714 50.7471L400.387 81.3105L400.27 81.3537L354.048 142.552L261.721 173.116L261.603 173.159L215.381 234.358L123.039 264.921L122.922 264.964L76.7001 326.163L0.0146458 351.53V352.149L77.1541 326.61L77.2713 326.566H77.2859ZM42.6193 487.229L88.8415 426.031L181.183 395.467L181.3 395.424L227.523 334.225L319.85 303.662L319.967 303.619L366.189 242.42L458.516 211.856L458.634 211.813L504.856 150.614L597.183 120.051L597.3 120.008L643.522 58.809L735.849 28.2456L735.966 28.2024L757.261 0H756.324L735.337 27.7849L643.01 58.3483L642.892 58.3915L596.67 119.59L504.343 150.154L504.226 150.197L458.004 211.396L365.677 241.959L365.559 242.002L319.337 303.201L227.01 333.765L226.893 333.808L180.671 395.007L88.3289 425.57L88.2117 425.613L41.9895 486.812L0.0146458 500.719V501.338L42.4875 487.287L42.6047 487.244L42.6193 487.229ZM19.4936 288.33L65.7157 227.131L158.043 196.568L158.16 196.524L204.382 135.326L296.709 104.762L296.827 104.719L343.049 43.5201L435.376 12.9567L435.493 12.9135L445.233 0.0143963H444.295L434.863 12.496L342.536 43.0594L342.419 43.1026L296.197 104.301L203.87 134.865L203.752 134.908L157.53 196.107L65.2031 226.67L65.086 226.713L18.8638 287.912L0 294.16V294.779L19.3618 288.373L19.4789 288.33H19.4936ZM42.6047 120.022L88.8268 58.8234L181.169 28.26L181.286 28.2168L202.595 0.0143963H201.658L180.671 27.7993L88.3289 58.3627L88.2117 58.4059L41.9895 119.605L0.0146458 133.497V134.116L42.4875 120.065L42.6047 120.022ZM65.7157 135.326L111.938 74.1267L204.265 43.5633L204.382 43.5201L237.262 0.0143963H236.325L203.782 43.1026L111.44 73.666L111.323 73.7092L65.1006 134.908L0.0146458 156.445V157.064L65.5986 135.354L65.7157 135.311V135.326ZM77.2713 142.97L123.493 81.7712L215.821 51.2078L215.938 51.1646L254.603 0.0143963H253.665L215.337 50.7471L122.995 81.3105L122.878 81.3537L76.6562 142.552L0.0146458 167.933V168.552L77.1541 143.013L77.2713 142.97ZM54.1602 127.667L100.382 66.4679L192.724 35.9045L192.841 35.8613L219.936 0.0143963H218.999L192.226 35.4582L99.8844 66.0216L99.7673 66.0648L53.5451 127.264L0.0146458 144.971V145.59L54.043 127.71L54.1602 127.667ZM88.8268 150.614L135.049 89.4156L227.376 58.8522L227.493 58.809L271.943 0.0143963H271.006L226.907 58.4059L134.58 88.9693L134.463 89.0125L88.241 150.211L0.0146458 179.407V180.026L88.7097 150.672L88.8268 150.629V150.614ZM58.4661 0.0143963H56.606L18.9956 12.4672L18.8784 12.5104L0.0146458 37.4737V38.7117L19.4936 12.9135L58.4661 0.0143963ZM127.814 0.0143963H125.954L42.1213 27.7561L42.0042 27.7993L0.0146458 83.3836V84.6216L42.6047 28.2168L127.814 0.0143963ZM93.1473 0.0143963H91.2873L30.5512 20.1117L30.434 20.1549L0.0146458 60.4214V61.6595L31.0491 20.558L93.1327 0.0143963H93.1473ZM100.28 158.316L100.397 158.273L146.619 97.0745L238.946 66.5111L239.064 66.4679L285.315 5.26906L301.176 0.0143963H299.316L284.832 4.80837L284.715 4.85156L238.492 66.0504L146.151 96.6138L146.033 96.657L99.8112 157.856L7.44007 188.419L7.3229 188.462L0.0146458 198.137V199.375L7.93803 188.88L100.265 158.316H100.28ZM31.0638 112.378L77.2859 51.179L169.613 20.6012L169.73 20.558L185.269 0.0143963H184.332L169.115 20.1549L76.788 50.7183L76.6708 50.7615L30.4486 111.96L0.0146458 122.023V122.642L30.9319 112.407L31.0491 112.363L31.0638 112.378ZM134.961 181.279L135.078 181.235L181.3 120.037L273.628 89.4732L273.745 89.43L319.967 28.2312L405.176 0.0143963H403.316L319.484 27.7561L319.366 27.7993L273.144 88.9981L180.817 119.562L180.7 119.605L134.478 180.804L42.1506 211.367L42.0335 211.41L0.0146458 266.98V268.218L42.6047 211.828L134.932 181.264L134.961 181.279ZM111.85 165.975L111.967 165.932L158.189 104.733L250.517 74.1699L250.634 74.1267L296.856 12.9279L335.843 0.0143963H333.983L296.373 12.4672L296.255 12.5104L250.033 73.7092L157.706 104.273L157.589 104.316L111.367 165.515L19.0396 196.078L18.9224 196.121L0.0146458 221.084V222.323L19.4936 196.524L111.821 165.961L111.85 165.975ZM123.406 173.62L123.523 173.577L169.76 112.378L262.087 81.8144L262.204 81.7712L308.426 20.5724L370.51 0.0143963H368.65L307.928 20.1117L307.811 20.1549L261.589 81.3537L169.262 111.917L169.144 111.96L122.922 173.159L30.5951 203.722L30.4779 203.766L0.0146458 244.032V245.27L31.0491 204.183L123.376 173.62H123.406ZM19.4936 104.719L65.7304 43.5201L158.058 12.9567L158.175 12.9135L167.929 0.0143963H166.992L157.56 12.496L65.2324 43.0594L65.1153 43.1026L18.8784 104.301L0.0146458 110.549V111.168L19.3764 104.762L19.4936 104.719ZM54.1748 35.8613L146.502 5.29785L146.619 5.25466L150.588 0H149.651L146.004 4.83717L53.6769 35.415L53.5597 35.4582L7.3229 96.657L0.0146458 99.0756V99.6946L7.93803 97.0745L54.1748 35.8613ZM88.8415 334.225L135.064 273.026L227.391 242.463L227.508 242.42L273.73 181.221L366.072 150.658L366.189 150.614L412.411 89.4156L504.753 58.8522L504.87 58.809L549.306 0.0143963H548.368L504.27 58.4059L411.928 88.9693L411.811 89.0125L365.589 150.211L273.247 180.775L273.13 180.818L226.907 242.017L134.58 272.58L134.463 272.623L88.241 333.822L0.0146458 363.004V363.623L88.7097 334.268L88.8268 334.225H88.8415Z" fill="#CCCCCC"/>
</svg>
