<svg width="74" height="74" viewBox="0 0 74 74" fill="none" xmlns="http://www.w3.org/2000/svg">
<path d="M29.102 3.27666C33.4326 -1.08665 40.5021 -1.08665 44.8697 3.24335L47.5717 5.94127C48.6081 6.97751 50.0146 7.57335 51.4951 7.57335H55.3075C61.4517 7.57335 66.4485 12.5658 66.4485 18.7092V22.5248C66.4485 24.0014 67.0407 25.4078 68.0771 26.444L70.7421 29.1086C72.8518 31.1811 73.9993 33.9938 73.9993 36.9544C74.0363 39.9151 72.8889 42.7315 70.8161 44.8373L68.0771 47.5759C67.0407 48.6121 66.4485 50.0185 66.4485 51.5025V55.3107C66.4485 61.4541 61.4517 66.454 55.3075 66.454H51.4951C50.0146 66.454 48.6081 67.0424 47.5717 68.0786L44.9067 70.7432C42.7229 72.9305 39.8729 74 37.0229 74C34.1729 74 31.3228 72.9305 29.139 70.784L26.4371 68.0786C25.4007 67.0424 23.9942 66.454 22.5136 66.454H18.7013C12.557 66.454 7.56024 61.4541 7.56024 55.3107V51.5025C7.56024 50.0185 6.96803 48.6121 5.93165 47.5389L3.26669 44.9113C-1.06388 40.585 -1.10089 33.5126 3.22967 29.1493L5.93165 26.444C6.96803 25.4078 7.56024 24.0014 7.56024 22.4841V18.7092C7.56024 12.5658 12.557 7.57335 18.7013 7.57335H22.5136C23.9942 7.57335 25.4007 6.97751 26.4371 5.94127L29.102 3.27666Z" fill="url(#paint0_linear_161_262)"/>
<defs>
<linearGradient id="paint0_linear_161_262" x1="37.0002" y1="0" x2="37.0002" y2="74" gradientUnits="userSpaceOnUse">
<stop stop-color="#D79A48"/>
<stop offset="1" stop-color="#C7770D"/>
</linearGradient>
</defs>
</svg>
